<svg width="24" height="24" viewBox="0 0 24 24" fill="none" xmlns="http://www.w3.org/2000/svg">
<path d="M13.197 2.92761C12.8593 2.65124 12.4364 2.50024 12 2.50024C11.5636 2.50024 11.1407 2.65124 10.803 2.92761L4.2155 8.29861C3.99135 8.48238 3.81087 8.7137 3.68713 8.97581C3.56338 9.23791 3.49946 9.52426 3.5 9.81411V19.5566C3.5 20.6301 4.3565 21.5001 5.4125 21.5001H7.5875C8.644 21.5001 9.5 20.6301 9.5 19.5566V15.2501C9.5 14.9186 9.6317 14.6006 9.86612 14.3662C10.1005 14.1318 10.4185 14.0001 10.75 14.0001H13.25C13.5815 14.0001 13.8995 14.1318 14.1339 14.3662C14.3683 14.6006 14.5 14.9186 14.5 15.2501V19.5566C14.5 20.6301 15.356 21.5001 16.4125 21.5001H18.5875C19.644 21.5001 20.5 20.6301 20.5 19.5566V9.81411C20.5005 9.52426 20.4366 9.23791 20.3129 8.97581C20.1891 8.7137 20.0087 8.48238 19.7845 8.29861L13.197 2.92761Z" fill="#262626"/>
</svg>
