<svg width="24" height="24" viewBox="0 0 24 24" fill="none" xmlns="http://www.w3.org/2000/svg">
<path d="M9.5 4V20H18.75C19.0455 20 19.3381 19.9335 19.611 19.8043C19.884 19.675 20.1321 19.4856 20.341 19.2468C20.5499 19.0081 20.7157 18.7246 20.8287 18.4126C20.9418 18.1006 21 17.7663 21 17.4286V6.57143C21 6.23374 20.9418 5.89937 20.8287 5.58739C20.7157 5.27541 20.5499 4.99193 20.341 4.75315C20.1321 4.51437 19.884 4.32496 19.611 4.19574C19.3381 4.06651 19.0455 4 18.75 4H9.5ZM5.25 4H8V20H5.25C4.65326 20 4.08097 19.7291 3.65901 19.2468C3.23705 18.7646 3 18.1106 3 17.4286V6.57143C3 5.88944 3.23705 5.23539 3.65901 4.75315C4.08097 4.27092 4.65326 4 5.25 4Z" fill="#262626"/>
</svg>
