<svg width="16" height="16" viewBox="0 0 16 16" fill="none" xmlns="http://www.w3.org/2000/svg">
<path d="M12.5 4.625L11.84 3.85719C11.2804 3.26943 10.6071 2.80168 9.86094 2.4824C9.11483 2.16312 8.31155 1.99899 7.5 2C4.1875 2 1.5 4.6875 1.5 8C1.5 11.3125 4.1875 14 7.5 14C8.74094 13.9999 9.95136 13.6152 10.9647 12.8989C11.978 12.1826 12.7444 11.1698 13.1584 10" stroke="#262626" stroke-miterlimit="10" stroke-linecap="round"/>
<path d="M14.5 3.04444V6.50007C14.5 6.63267 14.4474 6.75985 14.3536 6.85362C14.2598 6.94739 14.1326 7.00007 14 7.00007H10.5444C10.0988 7.00007 9.87566 6.46163 10.1907 6.14663L13.6466 2.69069C13.9616 2.37507 14.5 2.59882 14.5 3.04444Z" fill="#262626"/>
</svg>
